# xmcd
#
# Track frame offsets: 
#        150
#        12188
#        25170
#        37957
#        47507
#        59512
#        69890
#        82660
#        92140
#        104004
#        114102
#        127248
#        137890
#        152305
#        164400
#        176468
#        190737
#        202891
#        215236
#        229526
#
# Disc length: 3220 seconds
#
# Revision: 1
# Processed by: cddbd v1.5.2PL0 Copyright (c) Steve Scherf et al.
# Submitted via: ExactAudioCopy v1.0b6
#
DISCID=010c9214
DTITLE=Various Artist - Stars Of Country [CD3]
DYEAR=2014
DGENRE=Country
TTITLE0=I'm Sorry - Brenda Lee
TTITLE1=Jambalaya (On The Bayou) - Hank Williams
TTITLE2=Sixteen Tons - Tennessee Ernie Ford
TTITLE3=I Believe - Frankie Laine
TTITLE4=Foggy Mountain Breakdown - Flatt and Scruggs
TTITLE5=Juke Box Blues - June Carter Cash
TTITLE6=South Of The Border - Gene Autrey
TTITLE7=Let's Have A Party - Wanda Jackson
TTITLE8=I Love You Because - Ernest Tubb
TTITLE9=Mister Sandman - Chet Atkins
TTITLE10=Have I Told You Lately That I Love You - Red Foley
TTITLE11=Sweet Nothin's - Brenda Lee
TTITLE12=Jealousy - Frankie Lane
TTITLE13=The Golden Rocket - Hank Snow
TTITLE14=Sing Cowboy Sing - Tex Ritter
TTITLE15=Ridin' Down To Santa Fe - Merle Travis
TTITLE16=I'll Hold You In My Heart (Till I Can Hold You In My Arms) - 
TTITLE16=Eddy Arnold
TTITLE17=The Streamlined Cannon Ball - Roy Acuff
TTITLE18=The Brakeman's Blues (Yodeling The Blues Away) - Jimmie Rodge
TTITLE18=rs
TTITLE19=Your Cheatin' Heart - Hank Williams
EXTD=
EXTT0=
EXTT1=
EXTT2=
EXTT3=
EXTT4=
EXTT5=
EXTT6=
EXTT7=
EXTT8=
EXTT9=
EXTT10=
EXTT11=
EXTT12=
EXTT13=
EXTT14=
EXTT15=
EXTT16=
EXTT17=
EXTT18=
EXTT19=
PLAYORDER=
